<!DOCTYPE svg PUBLIC "-//W3C//DTD SVG 1.1//EN" "http://www.w3.org/Graphics/SVG/1.1/DTD/svg11.dtd">
<!-- Uploaded to: SVG Repo, www.svgrepo.com, Transformed by: SVG Repo Mixer Tools -->
<svg version="1.1" id="Layer_1" xmlns="http://www.w3.org/2000/svg" xmlns:xlink="http://www.w3.org/1999/xlink" viewBox="0 0 490 490" xml:space="preserve" width="64px" height="64px" fill="#000000">
<g id="SVGRepo_bgCarrier" stroke-width="0"/>
<g id="SVGRepo_tracerCarrier" stroke-linecap="round" stroke-linejoin="round"/>
<g id="SVGRepo_iconCarrier"> <g> <g id="XMLID_45_"> <g> <path style="fill:#e32400;" d="M480,140v320c0,5.498-4.502,10-10,10H20c-5.498,0-10-4.502-10-10V140c0-5.498,4.502-10,10-10h30 h65h40h40h100h40h40h65h30C475.498,130,480,134.502,480,140z M295,225v-50H195v50H295z"/> <rect x="375" y="100" style="fill:#546A79;" width="65" height="30"/> <rect x="295" y="55" style="fill:#E7ECED;" width="40" height="75"/> <path style="fill:#e32400;" d="M335,30v25h-40H195h-40V30c0-5.498,4.502-10,10-10h160C330.498,20,335,24.502,335,30z"/> <rect x="195" y="175" style="fill:#546A79;" width="100" height="50"/> <rect x="155" y="55" style="fill:#E7ECED;" width="40" height="75"/> <rect x="50" y="100" style="fill:#546A79;" width="65" height="30"/> </g> <g> <path style="fill:#231F20;" d="M470,120h-20v-20c0-5.522-4.477-10-10-10h-65c-5.523,0-10,4.478-10,10v20h-20V55V30 c0-11.028-8.972-20-20-20H165c-11.028,0-20,8.972-20,20v25v65h-20v-20c0-5.522-4.477-10-10-10H50c-5.523,0-10,4.478-10,10v20H20 c-11.028,0-20,8.972-20,20v320c0,11.028,8.972,20,20,20h450c11.028,0,20-8.972,20-20V140C490,128.972,481.028,120,470,120z M385,110h45v10h-45V110z M325,30v15H165V30H325z M325,65v55h-20V65H325z M285,120h-80V65h80V120z M185,65v55h-20V65H185z M60,110h45v10H60V110z M470,460H20V140h450V460z"/> <path style="fill:#231F20;" d="M195,235h100c5.523,0,10-4.477,10-10v-50c0-5.523-4.477-10-10-10H195c-5.523,0-10,4.477-10,10v50 C185,230.523,189.477,235,195,235z M205,185h80v30h-80V185z"/> <rect x="50" y="265" style="fill:#231F20;" width="390" height="20"/> <rect x="50" y="325" style="fill:#231F20;" width="390" height="20"/> <rect x="50" y="385" style="fill:#231F20;" width="390" height="20"/> </g> </g> </g> </g>
</svg>