<!DOCTYPE svg PUBLIC "-//W3C//DTD SVG 1.1//EN" "http://www.w3.org/Graphics/SVG/1.1/DTD/svg11.dtd">
<!-- Uploaded to: SVG Repo, www.svgrepo.com, Transformed by: SVG Repo Mixer Tools -->
<svg version="1.1" id="Layer_1" xmlns="http://www.w3.org/2000/svg" xmlns:xlink="http://www.w3.org/1999/xlink" viewBox="0 0 490 490" xml:space="preserve" width="64px" height="64px" fill="#000000">
<g id="SVGRepo_bgCarrier" stroke-width="0"/>
<g id="SVGRepo_tracerCarrier" stroke-linecap="round" stroke-linejoin="round"/>
<g id="SVGRepo_iconCarrier"> <g> <g> <g id="XMLID_39_"> <g> <polygon style="fill:#e32400;" points="425,400 345,480 345,400 "/> <polygon style="fill:#FFFFFF;" points="425,10 425,400 345,400 345,480 65,480 65,10 "/> </g> <path style="fill:#231F20;" d="M435,10c0-5.523-4.477-10-10-10H65c-5.523,0-10,4.477-10,10v470c0,5.523,4.477,10,10,10h279.987 c0.003,0,0.007,0,0.01,0c2.603,0,5.161-1.017,7.074-2.929l80-80c1.912-1.913,2.904-4.47,2.905-7.071H435V10z M345,390 c-5.523,0-10,4.477-10,10v70H75V20h340v370H345z M355,455.858V410h45.858L355,455.858z"/> </g> </g> <g> <rect x="110" y="50" style="fill:#231F20;" width="80" height="20"/> </g> <g> <rect x="110" y="80" style="fill:#231F20;" width="130" height="20"/> </g> <path style="fill:#231F20;" d="M370,125H120c-5.523,0-10,4.477-10,10v285c0,5.523,4.477,10,10,10h180v-20h-95v-90h155v40.005h20 V135C380,129.477,375.523,125,370,125z M360,180H205v-35h155V180z M205,200h155v40H205V200z M185,145v35h-55v-35H185z M130,410V200 h55v210H130z M205,300v-40h155v40H205z"/> <g> <rect x="145" y="215" style="fill:#231F20;" width="25" height="20"/> </g> <g> <rect x="145" y="275" style="fill:#231F20;" width="25" height="20"/> </g> <g> <rect x="145" y="335" style="fill:#231F20;" width="25" height="20"/> </g> <g> <rect x="145" y="375" style="fill:#231F20;" width="25" height="20"/> </g> </g> </g>
</svg>