<!DOCTYPE svg PUBLIC "-//W3C//DTD SVG 1.1//EN" "http://www.w3.org/Graphics/SVG/1.1/DTD/svg11.dtd">

<!-- Uploaded to: SVG Repo, www.svgrepo.com, Transformed by: SVG Repo Mixer Tools -->
<svg height="30px" width="30px" version="1.1" id="Layer_1" xmlns="http://www.w3.org/2000/svg" xmlns:xlink="http://www.w3.org/1999/xlink" viewBox="0 0 512.001 512.001" xml:space="preserve" fill="#000000">

<g id="SVGRepo_bgCarrier" stroke-width="0"/>

<g id="SVGRepo_tracerCarrier" stroke-linecap="round" stroke-linejoin="round"/>

<g id="SVGRepo_iconCarrier"> <path style="fill:#e32400;" d="M137.631,308.94c-7.183-16.105-11.181-33.941-11.181-52.714c0-66.07,49.46-120.584,113.373-128.546 V8.36C110.447,16.696,8.088,124.251,8.088,255.732c0,41.495,10.21,80.6,28.231,114.965L137.631,308.94z"/> <path style="fill:#e32400;" d="M239.823,127.68L239.823,127.68c-5.3-0.66-10.698-1.004-16.177-1.004 c-71.548,0-129.55,58.002-129.55,129.55c0,24.792,6.968,47.953,19.046,67.642l24.49-14.928 c-7.183-16.105-11.181-33.941-11.181-52.714C126.45,190.156,175.91,135.642,239.823,127.68z"/> <path style="fill:#606060;" d="M272.177,127.68c63.913,7.962,113.373,62.476,113.373,128.546c0,18.75-3.989,36.567-11.157,52.657 l101.342,61.709c17.987-34.339,28.176-73.407,28.176-114.859c0-131.481-102.36-239.037-231.735-247.372V127.68z"/> <path style="fill:#444444;" d="M272.177,8.36v4.247c113.677,22.563,199.381,122.82,199.381,243.125 c0,35.438-7.467,69.122-20.866,99.61l25.045,15.251c17.987-34.339,28.176-73.407,28.176-114.859 C503.912,124.251,401.553,16.696,272.177,8.36z"/> <path style="fill:#3FC8F2;" d="M357.636,336.559c-23.728,29.979-60.435,49.218-101.636,49.218 c-41.18,0-77.868-19.217-101.598-49.168L53.179,398.31C98.045,462.016,172.158,503.643,256,503.643 c83.885,0,158.029-41.67,202.889-105.432L357.636,336.559z"/> <g> <path style="fill:#0DAACE;" d="M239.741,503.109c5.376,0.348,10.795,0.534,16.259,0.534c83.885,0,158.029-41.67,202.889-105.432 l-23.131-14.085C394.911,451.463,322.902,497.778,239.741,503.109z"/> <path style="fill:#0DAACE;" d="M223.646,385.777c5.488,0,10.897-0.345,16.205-1.007c-34.545-4.297-64.872-22.188-85.449-48.161 l-20.845,12.706C156.873,371.883,188.635,385.777,223.646,385.777z"/> </g> <path d="M99.643,73.896c37.58-32.339,83.09-51.862,132.091-56.757v103.59c-44.718,8-83.29,38.157-101.75,80.061 c-1.801,4.088,0.053,8.862,4.141,10.663c1.06,0.468,2.168,0.689,3.257,0.689c3.108,0,6.073-1.802,7.406-4.83 c17.148-38.924,53.946-66.361,96.035-71.604c4.049-0.505,7.089-3.946,7.089-8.026V8.36c0-2.236-0.925-4.371-2.556-5.9 c-1.631-1.529-3.822-2.31-6.052-2.171c-55.81,3.596-107.752,24.809-150.211,61.345c-3.386,2.914-3.769,8.022-0.855,11.407 C91.149,76.425,96.256,76.809,99.643,73.896z"/> <path d="M145.019,305.646c-6.954-15.591-10.48-32.219-10.48-49.419c0-6.902,0.583-13.824,1.734-20.573 c0.751-4.403-2.211-8.582-6.614-9.333c-4.399-0.743-8.582,2.211-9.333,6.614c-1.303,7.643-1.964,15.48-1.964,23.292 c0,17.082,3.073,33.671,9.143,49.414l-87.893,53.577c-15.353-32.1-23.435-67.693-23.435-103.485 c0-61.358,23.157-119.734,65.204-164.376c3.063-3.252,2.91-8.371-0.342-11.434c-3.25-3.062-8.37-2.91-11.434,0.342 C24.719,127.918,0,190.235,0,255.732c0,41.296,10.083,82.349,29.156,118.723c1.039,1.979,2.849,3.441,5.004,4.039 c0.71,0.196,1.435,0.293,2.159,0.293c1.471,0,2.93-0.402,4.21-1.182l101.312-61.757 C145.315,313.729,146.675,309.361,145.019,305.646z"/> <path d="M442.45,80.323C397.799,32.888,337.513,4.464,272.698,0.288c-2.239-0.15-4.423,0.642-6.052,2.171 c-1.631,1.529-2.556,3.665-2.556,5.9V127.68c0,4.081,3.039,7.522,7.089,8.026c60.592,7.549,106.285,59.361,106.285,120.52 c0,17.18-3.518,33.789-10.457,49.366c-1.655,3.716-0.293,8.084,3.183,10.199l101.342,61.709c1.279,0.78,2.736,1.18,4.207,1.18 c0.724,0,1.452-0.097,2.162-0.294c2.154-0.597,3.964-2.061,5.002-4.041c19.037-36.343,29.099-77.358,29.099-118.613 C512,190.264,487.3,127.969,442.45,80.323z M472.438,359.114l-87.918-53.535c6.055-15.725,9.119-32.293,9.119-49.353 c0-66.897-48.257-123.927-113.373-135.502V17.141C337.691,22.91,390.823,49.079,430.67,91.41 c42.015,44.634,65.153,102.992,65.153,164.322C495.823,291.486,487.759,327.042,472.438,359.114z"/> <path d="M463.096,391.304l-101.253-61.652c-3.488-2.124-8.013-1.315-10.548,1.888c-23.212,29.329-57.946,46.15-95.294,46.15 c-37.326,0-72.046-16.803-95.257-46.103c-2.538-3.203-7.062-4.011-10.551-1.884L48.97,391.404c-1.911,1.165-3.254,3.069-3.71,5.261 c-0.455,2.191,0.018,4.473,1.306,6.303C94.53,471.072,172.823,511.731,256,511.731c83.225,0,161.544-40.697,209.504-108.865 c1.288-1.83,1.76-4.113,1.303-6.304C466.351,394.372,465.007,392.467,463.096,391.304z M256,495.555 c-75.034,0-145.83-35.325-191.098-94.918l87.76-53.496c26.172,29.784,63.439,46.723,103.338,46.723 c39.924,0,77.208-16.96,103.382-46.773l87.786,53.453C401.901,460.193,331.078,495.555,256,495.555z"/> </g>

</svg>