<!DOCTYPE svg PUBLIC "-//W3C//DTD SVG 1.1//EN" "http://www.w3.org/Graphics/SVG/1.1/DTD/svg11.dtd">

<!-- Uploaded to: SVG Repo, www.svgrepo.com, Transformed by: SVG Repo Mixer Tools -->
<svg version="1.1" id="Layer_1" xmlns="http://www.w3.org/2000/svg" xmlns:xlink="http://www.w3.org/1999/xlink" viewBox="0 0 490 490" xml:space="preserve" width="30px" height="30px" fill="#000000">

<g id="SVGRepo_bgCarrier" stroke-width="0"/>

<g id="SVGRepo_tracerCarrier" stroke-linecap="round" stroke-linejoin="round"/>

<g id="SVGRepo_iconCarrier"> <g> <g id="XMLID_45_"> <g> <path style="fill:#e32400;" d="M295,400c0,70-50,80-50,80s-50-10-50-80H295z"/> <rect x="210" y="350" style="fill:#AFB6BB;" width="70" height="30"/> <rect x="195" y="220" style="fill:#e32400;" width="100" height="130"/> <path style="fill:#e32400;" d="M245,145c10.996,0,20,8.999,20,20s-9.004,20-20,20c-11.001,0-20-8.999-20-20S233.999,145,245,145z "/> <polygon style="fill:#878D91;" points="245,10 295,100 195,100 "/> <path style="fill:#E7ECED;" d="M265,165c0-11.001-9.004-20-20-20c-11.001,0-20,8.999-20,20s8.999,20,20,20 C255.996,185,265,176.001,265,165z M295,130v90H195v-90v-30h100V130z"/> <polygon style="fill:#AFB6BB;" points="94.502,300 195,130 195,220 195,350 65,350 "/> <polygon style="fill:#AFB6BB;" points="295,350 295,220 295,130 395.498,300 425,350 "/> </g> <g> <path style="fill:#231F20;" d="M433.612,344.918l-29.506-50.007L305,127.265V100h-0.007c0-1.672-0.412-3.345-1.251-4.856l-50-90 C251.978,1.969,248.632,0,245,0s-6.978,1.969-8.742,5.144l-50,90c-0.839,1.511-1.251,3.185-1.251,4.856H185v27.265L85.89,294.918 l-29.502,50c-1.824,3.091-1.852,6.923-0.072,10.041C58.096,358.076,61.411,360,65,360h130h5v20c0,5.523,4.477,10,10,10h70 c5.523,0,10-4.477,10-10v-20h5h130c3.589,0,6.904-1.924,8.684-5.041C435.464,351.842,435.436,348.01,433.612,344.918z M285,210 h-80v-80v-20h80v20V210z M205,340V230h80v110H205z M245,30.591L278.005,90h-66.01L245,30.591z M185,340H82.511l17.701-30H170v-20 h-57.97L185,166.566V340z M270,370h-50v-10h50V370z M305,340V166.566L377.97,290H320v20h69.788l17.701,30H305z"/> <path style="fill:#231F20;" d="M245,135c-16.542,0-30,13.458-30,30s13.458,30,30,30s30-13.458,30-30S261.542,135,245,135z M245,175c-5.514,0-10-4.486-10-10s4.486-10,10-10s10,4.486,10,10S250.514,175,245,175z"/> <path style="fill:#231F20;" d="M245.009,469.65C236.73,467.011,205,453.395,205,400h-20c0,21.99,4.912,52.624,28.311,73.683 c14.131,12.718,28.173,15.811,29.729,16.123c0.647,0.129,1.304,0.194,1.961,0.194s1.314-0.065,1.961-0.194 c1.555-0.311,15.598-3.405,29.729-16.123C300.088,452.624,305,421.99,305,400h-20C285,453.479,253.393,467.005,245.009,469.65z"/> <rect x="235" y="400" style="fill:#231F20;" width="20" height="40"/> </g> </g> </g> </g>

</svg>